<svg width="694" height="485" viewBox="0 0 694 485" fill="none" xmlns="http://www.w3.org/2000/svg">
<g clip-path="url(#clip0)">
<path d="M612.871 472.807L601.26 472.807L595.737 428.089L612.873 428.089L612.871 472.807Z" fill="#FFB8B8"/>
<path d="M615.832 484.046L578.395 484.044V483.571C578.395 479.712 579.93 476.012 582.663 473.283C585.396 470.554 589.102 469.021 592.966 469.021H592.967L615.833 469.022L615.832 484.046Z" fill="#2F2E41"/>
<path d="M664.114 444.304L656.578 453.124L618.926 428.293L630.049 415.277L664.114 444.304Z" fill="#FFB8B8"/>
<path d="M674.598 449.35L650.297 477.787L649.937 477.48C646.997 474.975 645.174 471.407 644.869 467.56C644.564 463.713 645.802 459.903 648.311 456.967L648.311 456.966L663.154 439.598L674.598 449.35Z" fill="#2F2E41"/>
<path d="M530.431 252.889L526.817 286.172L672.917 284.091L609.202 180.425L557.18 178.559L530.431 252.889Z" fill="#2F2E41"/>
<path opacity="0.28" d="M530.431 252.889L526.817 286.172L672.917 284.091L609.202 180.425L557.18 178.559L530.431 252.889Z" fill="black"/>
<path d="M559.16 258.603L554.003 289.057V316.278L595.589 329.833C595.589 329.833 590.72 435.564 597.211 442.299L597.051 458.555L615.193 459.379L615.341 447.938L623.032 362.42L627.562 299.633L620.218 252.03L559.16 258.603Z" fill="#2F2E41"/>
<path d="M591.379 284.818L554.003 316.278C554.003 316.278 551.815 373.038 557.37 379.695C562.141 385.412 624.196 434.726 624.196 434.726C624.196 434.726 635.225 444.828 641.406 444.989C647.586 445.15 654.775 432.205 654.775 432.205L640.461 421.346C640.461 421.346 603.378 386.782 592.368 373.038C587.923 367.491 587.923 366.937 587.923 366.937L589.441 343.869L604.718 301.058L591.379 284.818Z" fill="#2F2E41"/>
<path d="M551.697 134.124L535.582 132.637L520.965 135.07L490.013 135.08L487.376 157.48L515.622 163.792L522.505 160.423L551.198 171.339L551.697 134.124Z" fill="#2F2E41"/>
<path d="M570.944 134.054C570.944 134.054 605.144 130.854 612.921 136.956C620.699 143.058 637.364 263.984 637.364 263.984L570.944 267.727L559.037 259.546L562.417 199.175L570.944 134.054Z" fill="#CCCCCC"/>
<path d="M581.383 133.301L543.658 134.128L508.485 292.828L536.261 298.931L581.383 133.301Z" fill="#2F2E41"/>
<path d="M608.202 131.96L637.919 141.247L636.231 206.452L672.917 284.409L629.79 288.946L595.701 204.766L608.202 131.96Z" fill="#2F2E41"/>
<path d="M657.205 292.328C658.247 291.412 659.075 290.279 659.631 289.009C660.187 287.74 660.458 286.363 660.423 284.978C660.389 283.592 660.051 282.231 659.433 280.99C658.815 279.749 657.932 278.659 656.846 277.795L662.824 256.97L651.036 250.255L643.007 279.783C641.676 281.701 641.095 284.04 641.375 286.356C641.655 288.673 642.776 290.807 644.526 292.353C646.276 293.899 648.534 294.751 650.871 294.746C653.208 294.742 655.461 293.881 657.205 292.328Z" fill="#FFB8B8"/>
<path d="M620.699 143.058L638.283 141.535C638.283 141.535 654.069 158.021 657.66 170.786C661.251 183.551 665.14 223.49 665.14 223.49L663.518 281.917L642.964 267.979L641.585 217.725L620.699 143.058Z" fill="#2F2E41"/>
<path d="M616.457 113.691C623.06 101.63 618.621 86.5068 606.542 79.9133C594.463 73.3199 579.318 77.7527 572.715 89.8142C566.112 101.876 570.551 116.999 582.63 123.592C594.709 130.186 609.854 125.753 616.457 113.691Z" fill="#FFB8B8"/>
<path d="M591.807 91.3618C588.536 90.6073 585.141 91.4434 581.829 91.9855C578.517 92.5275 574.866 92.7062 572.065 90.8608C569.995 89.4979 568.723 87.2433 567.529 85.0745C567.03 84.2999 566.698 83.4306 566.553 82.5213C566.412 80.9174 567.434 79.4539 568.519 78.2629C573.559 72.7308 580.925 69.7029 588.352 68.7411C594.478 67.8295 600.736 68.5926 606.462 70.9493C612.101 73.4187 616.947 77.9409 619.164 83.6764C620.185 86.612 620.823 89.6667 621.061 92.7651C621.396 95.0448 621.439 97.3577 621.189 99.6482C620.891 101.346 620.444 103.015 619.853 104.635L616.181 115.707C615.917 116.753 615.424 117.728 614.737 118.561C614.384 118.969 613.909 119.252 613.381 119.367C612.854 119.482 612.303 119.424 611.812 119.201C612.106 117.998 612.151 116.748 611.944 115.528C611.829 114.92 611.534 114.36 611.098 113.92C610.661 113.48 610.103 113.182 609.495 113.062C608.141 112.918 606.985 113.966 605.701 114.417C605.113 114.591 604.497 114.648 603.888 114.584C603.278 114.52 602.687 114.337 602.149 114.045C601.61 113.753 601.134 113.358 600.748 112.883C600.363 112.407 600.074 111.86 599.9 111.274C599.865 111.155 599.835 111.036 599.809 110.915C599.606 109.649 599.947 108.294 599.466 107.105C598.903 105.713 597.41 104.983 596.289 103.982C595.265 103.039 594.533 101.824 594.177 100.48C593.822 99.1351 593.858 97.7173 594.282 96.3928C594.582 95.4714 595.43 95.0525 595.261 93.9939C595.038 92.6052 592.988 91.6343 591.807 91.3618Z" fill="#2F2E41"/>
<path d="M314.688 196.573H0V0H314.688V196.573Z" fill="white"/>
<path d="M314.688 196.573H0V0H314.688V196.573ZM1.43694 195.139H313.251V1.43485H1.43694V195.139Z" fill="#3F3D56"/>
<path d="M276.25 468.835H96.6337V272.262H276.25V468.835Z" fill="white"/>
<path d="M276.25 468.835H96.6337V272.262H276.25V468.835ZM98.0707 467.4H274.813V273.696H98.0707V467.4Z" fill="#3F3D56"/>
<path d="M251.822 450.269H214.462V451.782H251.822V450.269Z" fill="#3F3D56"/>
<path d="M251.822 454.806H214.462V456.319H251.822V454.806Z" fill="#3F3D56"/>
<path d="M251.822 459.344H214.462V460.856H251.822V459.344Z" fill="#3F3D56"/>
<path d="M186.442 307.415V323.198C195.821 323.198 204.989 325.975 212.786 331.178C220.584 336.381 226.662 343.776 230.251 352.428C233.84 361.08 234.779 370.601 232.95 379.786C231.12 388.971 226.604 397.407 219.972 404.029L231.149 415.19C239.991 406.361 246.013 395.111 248.452 382.865C250.892 370.618 249.64 357.924 244.854 346.388C240.069 334.852 231.965 324.992 221.568 318.055C211.171 311.118 198.947 307.415 186.442 307.415Z" fill="#E6E6E6"/>
<path d="M231.149 415.19L219.972 404.029C211.865 412.126 201.094 417.015 189.654 417.789C178.214 418.564 166.88 415.172 157.753 408.242L148.186 420.812C160.358 430.049 175.47 434.57 190.723 433.536C205.977 432.503 220.338 425.985 231.149 415.19Z" fill="#575A89"/>
<path d="M139.023 370.548C139.023 364.33 140.25 358.173 142.633 352.428C145.016 346.683 148.509 341.464 152.912 337.067C157.315 332.67 162.543 329.182 168.296 326.803C174.049 324.423 180.215 323.198 186.442 323.198V307.415C173.207 307.415 160.305 311.562 149.555 319.273C138.806 326.983 130.751 337.868 126.525 350.393C122.3 362.917 122.118 376.45 126.004 389.084C129.89 401.718 137.648 412.815 148.186 420.812L157.753 408.242C151.928 403.83 147.205 398.131 143.956 391.591C140.706 385.051 139.018 377.849 139.023 370.548Z" fill="#457B9D"/>
<path d="M542.083 346.873H362.466V150.3H542.083V346.873Z" fill="white"/>
<path d="M542.083 346.873H362.466V150.3H542.083V346.873ZM363.903 345.439H540.646V151.735H363.903V345.439Z" fill="#3F3D56"/>
<path d="M420.662 270.468H388.331V322.122H420.662V270.468Z" fill="#575A89"/>
<path d="M467.362 235.314H435.031V322.122H467.362V235.314Z" fill="#E6E6E6"/>
<path d="M514.063 194.421H481.732V322.122H514.063V194.421Z" fill="#457B9D"/>
<path d="M524.839 323.558H379.71V173.616H381.146V322.122H524.839V323.558Z" fill="#3F3D56"/>
<path d="M489.849 155.533C495.314 155.533 499.745 151.109 499.745 145.652C499.745 140.195 495.314 135.771 489.849 135.771C484.384 135.771 479.954 140.195 479.954 145.652C479.954 151.109 484.384 155.533 489.849 155.533Z" fill="#FFB8B8"/>
<path d="M693.175 485H538.97C538.751 485 538.541 484.913 538.387 484.759C538.232 484.604 538.145 484.395 538.145 484.177C538.145 483.958 538.232 483.749 538.387 483.594C538.541 483.44 538.751 483.353 538.97 483.353H693.175C693.394 483.353 693.604 483.44 693.758 483.594C693.913 483.749 694 483.958 694 484.177C694 484.395 693.913 484.604 693.758 484.759C693.604 484.913 693.394 485 693.175 485Z" fill="#CCCCCC"/>
<path d="M270.986 155.462H43.7027C43.514 155.462 43.3331 155.387 43.1997 155.254C43.0664 155.121 42.9914 154.94 42.9914 154.752V45.9739C42.9914 45.7855 43.0663 45.6049 43.1997 45.4717C43.3331 45.3385 43.514 45.2636 43.7027 45.2636C43.8913 45.2636 44.0723 45.3385 44.2057 45.4717C44.339 45.6049 44.414 45.7855 44.414 45.9739V154.042H270.986C271.079 154.042 271.172 154.06 271.259 154.095C271.345 154.131 271.424 154.183 271.49 154.249C271.556 154.315 271.609 154.393 271.645 154.48C271.681 154.566 271.699 154.659 271.699 154.752C271.699 154.846 271.681 154.938 271.645 155.024C271.609 155.111 271.556 155.189 271.49 155.255C271.424 155.321 271.345 155.373 271.259 155.409C271.172 155.445 271.079 155.463 270.986 155.462Z" fill="#3F3D56"/>
<path d="M92.2631 147.65H71.5909C71.0311 147.649 70.4944 147.427 70.0986 147.031C69.7028 146.636 69.4801 146.1 69.4794 145.541V117.086C69.4801 116.527 69.7028 115.991 70.0986 115.596C70.4944 115.201 71.0311 114.978 71.5909 114.978H92.2631C92.8229 114.978 93.3596 115.201 93.7554 115.596C94.1513 115.991 94.374 116.527 94.3746 117.086V145.541C94.374 146.1 94.1513 146.636 93.7554 147.031C93.3596 147.427 92.8229 147.649 92.2631 147.65Z" fill="#457B9D"/>
<path d="M129.962 147.65H109.289C108.73 147.649 108.193 147.427 107.797 147.031C107.401 146.636 107.179 146.1 107.178 145.541V90.0962C107.179 89.5372 107.401 89.0014 107.797 88.6061C108.193 88.2109 108.73 87.9886 109.289 87.9879H129.962C130.521 87.9886 131.058 88.2109 131.454 88.6061C131.85 89.0014 132.072 89.5372 132.073 90.0962V145.541C132.072 146.1 131.85 146.636 131.454 147.031C131.058 147.427 130.521 147.649 129.962 147.65Z" fill="#457B9D"/>
<path d="M167.66 147.65H146.988C146.428 147.649 145.891 147.427 145.496 147.031C145.1 146.636 144.877 146.1 144.876 145.541V117.086C144.877 116.527 145.1 115.991 145.496 115.596C145.891 115.201 146.428 114.978 146.988 114.978H167.66C168.22 114.978 168.757 115.201 169.152 115.596C169.548 115.991 169.771 116.527 169.772 117.086V145.541C169.771 146.1 169.548 146.636 169.152 147.031C168.757 147.427 168.22 147.649 167.66 147.65Z" fill="#457B9D"/>
<path d="M205.359 147.65H184.686C184.139 147.661 183.61 147.456 183.214 147.079C182.818 146.702 182.588 146.183 182.575 145.637V79.3468C182.588 78.8006 182.818 78.2821 183.214 77.9048C183.61 77.5276 184.139 77.3223 184.686 77.3341H205.359C205.906 77.3223 206.435 77.5276 206.831 77.9048C207.226 78.2821 207.456 78.8006 207.47 79.3468V145.637C207.456 146.183 207.226 146.702 206.831 147.079C206.435 147.456 205.906 147.661 205.359 147.65Z" fill="#457B9D"/>
<path d="M243.057 147.65H222.385C221.825 147.649 221.288 147.427 220.892 147.031C220.497 146.636 220.274 146.1 220.273 145.541V60.2654C220.274 59.7064 220.497 59.1706 220.892 58.7753C221.288 58.3801 221.825 58.1578 222.385 58.1572H243.057C243.617 58.1578 244.153 58.3801 244.549 58.7753C244.945 59.1706 245.168 59.7064 245.168 60.2654V145.541C245.168 146.1 244.945 146.636 244.549 147.031C244.153 147.427 243.617 147.649 243.057 147.65Z" fill="#457B9D"/>
<path d="M81.927 106.455C84.284 106.455 86.1948 104.547 86.1948 102.193C86.1948 99.8395 84.284 97.9315 81.927 97.9315C79.57 97.9315 77.6593 99.8395 77.6593 102.193C77.6593 104.547 79.57 106.455 81.927 106.455Z" fill="#3F3D56"/>
<path d="M119.625 78.7546C121.982 78.7546 123.893 76.8467 123.893 74.4931C123.893 72.1395 121.982 70.2315 119.625 70.2315C117.268 70.2315 115.358 72.1395 115.358 74.4931C115.358 76.8467 117.268 78.7546 119.625 78.7546Z" fill="#3F3D56"/>
<path d="M157.324 106.455C159.681 106.455 161.592 104.547 161.592 102.193C161.592 99.8395 159.681 97.9315 157.324 97.9315C154.967 97.9315 153.056 99.8395 153.056 102.193C153.056 104.547 154.967 106.455 157.324 106.455Z" fill="#3F3D56"/>
<path d="M195.022 65.2597C197.379 65.2597 199.29 63.3518 199.29 60.9982C199.29 58.6446 197.379 56.7367 195.022 56.7367C192.665 56.7367 190.755 58.6446 190.755 60.9982C190.755 63.3518 192.665 65.2597 195.022 65.2597Z" fill="#3F3D56"/>
<path d="M232.721 49.6341C235.078 49.6341 236.989 47.7261 236.989 45.3725C236.989 43.0189 235.078 41.111 232.721 41.111C230.364 41.111 228.453 43.0189 228.453 45.3725C228.453 47.7261 230.364 49.6341 232.721 49.6341Z" fill="#3F3D56"/>
<path d="M157.414 103.148L119.626 74.8851L82.3533 102.762L81.5006 101.624L119.626 73.1098L157.234 101.238L194.607 60.4002L194.757 60.3393L232.455 45.1717L232.987 46.49L195.438 61.5966L157.414 103.148Z" fill="#3F3D56"/>
</g>
<defs>
<clipPath id="clip0">
<rect width="694" height="485" fill="white"/>
</clipPath>
</defs>
</svg>
