<svg width="327" height="127" viewBox="0 0 327 127" fill="none" xmlns="http://www.w3.org/2000/svg">
                    <path
                        d="M127 38.9187C127 35.5308 124.243 32.7737 120.855 32.7737C120.15 32.7737 119.482 32.917 118.852 33.1362L109.673 21.6634C110.259 20.7232 110.613 19.6232 110.613 18.4352C110.613 15.0472 107.856 12.2901 104.468 12.2901C102.745 12.2901 101.193 13.007 100.076 14.15L83.9292 6.69812C83.9456 6.51377 83.9845 6.33556 83.9845 6.14506C83.9845 2.75708 81.2274 0 77.8394 0C75.1725 0 72.9193 1.71857 72.0713 4.09671H48.7856C47.9375 1.71857 45.6843 0 43.0174 0C39.6294 0 36.8723 2.75708 36.8723 6.14506C36.8723 6.39906 36.9174 6.64281 36.9481 6.89066L26.7883 11.9706C25.6822 10.9054 24.1869 10.2418 22.5338 10.2418C19.1459 10.2418 16.3888 12.9989 16.3888 16.3868C16.3888 17.5749 16.7432 18.6748 17.329 19.615L8.15031 31.0879C7.51941 30.8687 6.85165 30.7253 6.14702 30.7253C2.75904 30.7253 0.00195312 33.4824 0.00195312 36.8704C0.00195312 39.5373 1.72052 41.7905 4.09866 42.6385V55.6845C1.72052 56.5305 0.00195312 58.7837 0.00195312 61.4506C0.00195312 64.8386 2.75904 67.5957 6.14702 67.5957C8.42274 67.5957 10.3892 66.338 11.4523 64.4965L22.6342 66.5285C23.1074 69.4494 25.6269 71.6924 28.6789 71.6924C28.7608 71.6924 28.8387 71.6719 28.9206 71.6678L32.8289 81.4405C31.5507 82.5671 30.7273 84.1976 30.7273 86.0309C30.7273 89.4189 33.4843 92.1759 36.8723 92.1759C38.933 92.1759 40.7499 91.1477 41.8642 89.5889L59.4431 94.6114C59.6009 97.1063 61.2395 99.1854 63.5009 99.9925V115.087C61.1228 115.935 59.4042 118.188 59.4042 120.855C59.4042 124.243 62.1613 127 65.5493 127C68.9373 127 71.6944 124.243 71.6944 120.855C71.6944 118.188 69.9758 115.935 67.5976 115.087V99.9925C69.9758 99.1444 71.6944 96.8913 71.6944 94.2243C71.6944 92.262 70.7521 90.5311 69.3162 89.4045L71.7619 82.0653L90.1418 88.1919C90.191 90.8076 91.8829 93.0096 94.2262 93.8453V115.085C91.8481 115.933 90.1295 118.186 90.1295 120.853C90.1295 124.241 92.8866 126.998 96.2746 126.998C99.6626 126.998 102.42 124.241 102.42 120.853C102.42 118.186 100.701 115.933 98.323 115.085V93.8474C100.701 92.9994 102.42 90.7462 102.42 88.0792C102.42 87.3316 102.266 86.6228 102.02 85.9592L117.737 72.862C118.653 73.4069 119.712 73.7408 120.855 73.7408C124.243 73.7408 127 70.9837 127 67.5957C127 64.9287 125.281 62.6755 122.903 61.8275V44.6848C125.281 43.8389 127 41.5857 127 38.9187ZM104.468 16.3868C105.597 16.3868 106.516 17.3045 106.516 18.4352C106.516 19.5659 105.597 20.4835 104.468 20.4835C103.339 20.4835 102.42 19.5659 102.42 18.4352C102.42 17.3045 103.339 16.3868 104.468 16.3868ZM101.555 23.8121C102.426 24.2873 103.409 24.5802 104.468 24.5802C105.173 24.5802 105.838 24.4369 106.469 24.2177L115.648 35.6926C115.064 36.6328 114.71 37.7307 114.71 38.9187C114.71 39.2485 114.757 39.566 114.808 39.8835L100.298 47.7983L89.7301 38.9925C89.9759 38.3268 90.1295 37.618 90.1295 36.8704C90.1295 36.0387 89.9595 35.244 89.6584 34.5209L101.555 23.8121ZM75.7911 57.3539C74.8447 57.3539 73.9598 57.5854 73.1589 57.9705L64.48 49.2916L79.8017 41.346C80.9017 42.3743 82.3642 43.0154 83.9845 43.0154C85.1275 43.0154 86.1844 42.6816 87.1021 42.1367L96.4282 49.9081L79.8714 58.9393C78.7837 57.9643 77.3642 57.3539 75.7911 57.3539ZM77.8394 63.499C77.8394 64.6297 76.9197 65.5473 75.7911 65.5473C74.6624 65.5473 73.7427 64.6297 73.7427 63.499C73.7427 62.3683 74.6624 61.4506 75.7911 61.4506C76.9197 61.4506 77.8394 62.3683 77.8394 63.499ZM46.8703 40.9405L50.3095 52.022L32.8616 61.0696C32.1304 60.3875 31.2353 59.8918 30.2398 59.6276L27.4007 37.8577L41.4361 37.1551C42.3271 39.3141 44.4164 40.8421 46.8703 40.9405ZM45.0657 34.822C45.0657 33.6913 45.9855 32.7737 47.1141 32.7737C48.2427 32.7737 49.1625 33.6913 49.1625 34.822C49.1625 35.9527 48.2427 36.8704 47.1141 36.8704C45.9855 36.8704 45.0657 35.9527 45.0657 34.822ZM51.5406 56L56.7352 72.7412L34.8117 65.4326C34.8076 65.1868 34.7707 64.9492 34.7379 64.7116L51.5406 56ZM51.5263 42.1326L57.6263 48.2305L54.0027 50.1089L51.5263 42.1326ZM52.6447 37.4542C53.0277 36.6532 53.2592 35.7684 53.2592 34.822C53.2592 33.9494 53.0707 33.1219 52.743 32.3701L62.4686 23.2918L78.1467 35.0494C77.9644 35.6311 77.8394 36.2333 77.8394 36.8704C77.8394 37.1571 77.8865 37.4296 77.9234 37.7061L61.4403 46.2518L52.6447 37.4542ZM81.9361 36.8704C81.9361 35.7397 82.8558 34.822 83.9845 34.822C85.1131 34.822 86.0328 35.7397 86.0328 36.8704C86.0328 38.0011 85.1131 38.9187 83.9845 38.9187C82.8558 38.9187 81.9361 38.0011 81.9361 36.8704ZM99.8142 52.7287L114.491 64.9595L82.6899 62.0692L99.8142 52.7287ZM77.8394 4.09671C78.9681 4.09671 79.8878 5.01437 79.8878 6.14506C79.8878 7.27575 78.9681 8.19342 77.8394 8.19342C76.7108 8.19342 75.7911 7.27575 75.7911 6.14506C75.7911 5.01437 76.7108 4.09671 77.8394 4.09671ZM75.025 11.5752C75.8709 12.0156 76.8193 12.2901 77.8394 12.2901C79.5621 12.2901 81.1147 11.5732 82.2331 10.4282L98.3783 17.8801C98.3619 18.0665 98.323 18.2447 98.323 18.4352C98.323 19.2689 98.493 20.0616 98.7941 20.7867L86.8972 31.4934C86.0267 31.0182 85.0435 30.7253 83.9845 30.7253C82.7268 30.7253 81.5572 31.1084 80.5822 31.7597L65.5104 20.4549L75.025 11.5752ZM72.0713 8.19342C72.1204 8.32656 72.1552 8.46585 72.2105 8.59489L62.1797 17.9559L49.1625 8.19342H72.0713ZM43.0174 4.09671C44.146 4.09671 45.0657 5.01437 45.0657 6.14506C45.0657 7.27575 44.146 8.19342 43.0174 8.19342C41.8887 8.19342 40.969 7.27575 40.969 6.14506C40.969 5.01437 41.8887 4.09671 43.0174 4.09671ZM28.6789 16.3868C28.6789 16.1328 28.6338 15.8891 28.6031 15.6433L38.763 10.5634C39.8691 11.6265 41.3644 12.2901 43.0174 12.2901C44.2751 12.2901 45.4447 11.9071 46.4197 11.2557L59.1379 20.7949L49.9285 29.3898C49.0826 28.9494 48.1342 28.677 47.1141 28.677C44.3406 28.677 42.0178 30.5348 41.2558 33.0625L26.8682 33.7815L25.3114 21.8375C27.3004 20.8195 28.6789 18.7711 28.6789 16.3868ZM22.5338 14.3385C23.6625 14.3385 24.5822 15.2561 24.5822 16.3868C24.5822 17.5175 23.6625 18.4352 22.5338 18.4352C21.4052 18.4352 20.4855 17.5175 20.4855 16.3868C20.4855 15.2561 21.4052 14.3385 22.5338 14.3385ZM20.5306 22.1693C20.7682 22.2513 21.0017 22.3393 21.2495 22.3926L22.7612 33.9883L11.8251 34.5353C11.696 34.2219 11.5301 33.9289 11.3519 33.6422L20.5306 22.1693ZM6.14702 34.822C7.27566 34.822 8.19537 35.7397 8.19537 36.8704C8.19537 38.0011 7.27566 38.9187 6.14702 38.9187C5.01837 38.9187 4.09866 38.0011 4.09866 36.8704C4.09866 35.7397 5.01837 34.822 6.14702 34.822ZM6.14702 63.499C5.01837 63.499 4.09866 62.5813 4.09866 61.4506C4.09866 60.3199 5.01837 59.4023 6.14702 59.4023C7.27566 59.4023 8.19537 60.3199 8.19537 61.4506C8.19537 62.5813 7.27566 63.499 6.14702 63.499ZM23.3737 62.5014L12.1938 60.4695C11.8312 58.2388 10.2744 56.424 8.19537 55.6825V42.6365C10.0246 41.9831 11.442 40.498 12.0053 38.6279L23.2958 38.0625L26.1512 59.9594C24.9755 60.494 24.0148 61.3892 23.3737 62.5014ZM28.6789 67.5957C27.5503 67.5957 26.6306 66.678 26.6306 65.5473C26.6306 64.4166 27.5503 63.499 28.6789 63.499C29.8076 63.499 30.7273 64.4166 30.7273 65.5473C30.7273 66.678 29.8076 67.5957 28.6789 67.5957ZM36.8723 88.0792C35.7437 88.0792 34.824 87.1616 34.824 86.0309C34.824 84.9002 35.7437 83.9825 36.8723 83.9825C38.001 83.9825 38.9207 84.9002 38.9207 86.0309C38.9207 87.1616 38.001 88.0792 36.8723 88.0792ZM60.5595 90.6663L42.9805 85.6437C42.7736 82.4381 40.1292 79.8858 36.8723 79.8858C36.7904 79.8858 36.7126 79.9063 36.6306 79.9104L32.7224 70.1377C33.0071 69.8857 33.2652 69.6113 33.5007 69.3122L58.2326 77.5568L61.8848 89.3226C61.3788 89.7036 60.9282 90.1522 60.5595 90.6663ZM65.5493 122.901C64.4206 122.901 63.5009 121.984 63.5009 120.853C63.5009 119.722 64.4206 118.805 65.5493 118.805C66.6779 118.805 67.5976 119.722 67.5976 120.853C67.5976 121.984 66.6779 122.901 65.5493 122.901ZM65.5493 96.2726C64.4206 96.2726 63.5009 95.355 63.5009 94.2243C63.5009 93.0936 64.4206 92.1759 65.5493 92.1759C66.6779 92.1759 67.5976 93.0936 67.5976 94.2243C67.5976 95.355 66.6779 96.2726 65.5493 96.2726ZM65.6189 87.5385L63.0155 79.1525L67.8742 80.7727L65.6189 87.5385ZM69.1708 76.885L61.5222 74.3348L55.2379 54.0847L60.666 51.2703L70.2625 60.8668C69.8775 61.6678 69.646 62.5526 69.646 63.499C69.646 65.4613 70.5882 67.1942 72.0262 68.3188L69.1708 76.885ZM96.2746 122.901C95.146 122.901 94.2262 121.984 94.2262 120.853C94.2262 119.722 95.146 118.805 96.2746 118.805C97.4032 118.805 98.323 119.722 98.323 120.853C98.323 121.984 97.4032 122.901 96.2746 122.901ZM96.2746 90.1276C95.146 90.1276 94.2262 89.2099 94.2262 88.0792C94.2262 86.9485 95.146 86.0309 96.2746 86.0309C97.4032 86.0309 98.323 86.9485 98.323 88.0792C98.323 89.2099 97.4032 90.1276 96.2746 90.1276ZM99.3922 82.8109C98.4745 82.2681 97.4176 81.9342 96.2746 81.9342C94.3123 81.9342 92.5794 82.8764 91.4548 84.3144L73.0565 78.1816L75.9058 69.6318C78.3269 69.5867 80.3978 68.1365 81.3564 66.0615L114.921 69.1115C114.974 69.3163 115.035 69.517 115.109 69.7137L99.3922 82.8109ZM103.683 50.6169L116.775 43.4763C117.362 44.0048 118.049 44.4145 118.809 44.6848V61.8275C118.432 61.9627 118.075 62.1286 117.737 62.3294L103.683 50.6169ZM120.855 69.644C119.726 69.644 118.806 68.7264 118.806 67.5957C118.806 66.465 119.726 65.5473 120.855 65.5473C121.983 65.5473 122.903 66.465 122.903 67.5957C122.903 68.7264 121.983 69.644 120.855 69.644ZM120.855 40.9671C119.726 40.9671 118.806 40.0494 118.806 38.9187C118.806 37.788 119.726 36.8704 120.855 36.8704C121.983 36.8704 122.903 37.788 122.903 38.9187C122.903 40.0494 121.983 40.9671 120.855 40.9671Z"
                        fill="#457B9D" />
                    <path d="M8.19443 0H4.09772V4.09671H8.19443V0Z" fill="#457B9D" />
                    <path d="M8.19443 8.19342H4.09772V12.2901H8.19443V8.19342Z" fill="#457B9D" />
                    <path d="M12.2912 4.09668H8.19446V8.19339H12.2912V4.09668Z" fill="#457B9D" />
                    <path d="M4.09775 4.09668H0.0010376V8.19339H4.09775V4.09668Z" fill="#457B9D" />
                    <path d="M110.612 94.2243H106.515V98.321H110.612V94.2243Z" fill="#457B9D" />
                    <path d="M110.612 102.418H106.515V106.514H110.612V102.418Z" fill="#457B9D" />
                    <path d="M114.709 98.321H110.612V102.418H114.709V98.321Z" fill="#457B9D" />
                    <path d="M106.515 98.321H102.419V102.418H106.515V98.321Z" fill="#457B9D" />
                    <path d="M122.902 8.19342H118.806V12.2901H122.902V8.19342Z" fill="#457B9D" />
                    <path d="M122.902 16.3868H118.806V20.4835H122.902V16.3868Z" fill="#457B9D" />
                    <path d="M126.999 12.2901H122.902V16.3868H126.999V12.2901Z" fill="#457B9D" />
                    <path d="M118.806 12.2901H114.709V16.3868H118.806V12.2901Z" fill="#457B9D" />
                    <path d="M28.678 98.321H24.5813V102.418H28.678V98.321Z" fill="#457B9D" />
                    <path d="M28.678 106.514H24.5813V110.611H28.678V106.514Z" fill="#457B9D" />
                    <path d="M32.7747 102.418H28.678V106.514H32.7747V102.418Z" fill="#457B9D" />
                    <path d="M24.5813 102.418H20.4846V106.514H24.5813V102.418Z" fill="#457B9D" />
                    <path d="M16.3878 75.7891H12.2911V79.8858H16.3878V75.7891Z" fill="#457B9D" />
                    <path d="M16.3878 83.9825H12.2911V88.0792H16.3878V83.9825Z" fill="#457B9D" />
                    <path d="M20.4846 79.8858H16.3879V83.9825H20.4846V79.8858Z" fill="#457B9D" />
                    <path d="M12.2912 79.8858H8.19446V83.9825H12.2912V79.8858Z" fill="#457B9D" />
                    <path
                        d="M181.557 36.2852C181.557 35.2891 181.205 34.5273 180.502 34C179.799 33.4609 178.533 32.8984 176.705 32.3125C174.877 31.7148 173.43 31.1289 172.363 30.5547C169.457 28.9844 168.004 26.8691 168.004 24.209C168.004 22.8262 168.391 21.5957 169.164 20.5176C169.949 19.4277 171.068 18.5781 172.521 17.9688C173.986 17.3594 175.627 17.0547 177.443 17.0547C179.271 17.0547 180.9 17.3887 182.33 18.0566C183.76 18.7129 184.867 19.6445 185.652 20.8516C186.449 22.0586 186.848 23.4297 186.848 24.9648H181.574C181.574 23.793 181.205 22.8848 180.467 22.2402C179.729 21.584 178.691 21.2559 177.355 21.2559C176.066 21.2559 175.064 21.5312 174.35 22.082C173.635 22.6211 173.277 23.3359 173.277 24.2266C173.277 25.0586 173.693 25.7559 174.525 26.3184C175.369 26.8809 176.605 27.4082 178.234 27.9004C181.234 28.8027 183.42 29.9219 184.791 31.2578C186.162 32.5938 186.848 34.2578 186.848 36.25C186.848 38.4648 186.01 40.2051 184.334 41.4707C182.658 42.7246 180.402 43.3516 177.566 43.3516C175.598 43.3516 173.805 42.9941 172.188 42.2793C170.57 41.5527 169.334 40.5625 168.479 39.3086C167.635 38.0547 167.213 36.6016 167.213 34.9492H172.504C172.504 37.7734 174.191 39.1855 177.566 39.1855C178.82 39.1855 179.799 38.9336 180.502 38.4297C181.205 37.9141 181.557 37.1992 181.557 36.2852ZM197.324 17.4062L203.898 35.9688L210.438 17.4062H217.363V43H212.072V36.0039L212.6 23.9277L205.691 43H202.07L195.18 23.9453L195.707 36.0039V43H190.434V17.4062H197.324ZM236.734 37.7266H227.488L225.73 43H220.123L229.65 17.4062H234.537L244.117 43H238.51L236.734 37.7266ZM228.912 33.4551H235.311L232.094 23.875L228.912 33.4551ZM255.982 33.6309H251.781V43H246.508V17.4062H256.018C259.041 17.4062 261.373 18.0801 263.014 19.4277C264.654 20.7754 265.475 22.6797 265.475 25.1406C265.475 26.8867 265.094 28.3457 264.332 29.5176C263.582 30.6777 262.439 31.6035 260.904 32.2949L266.441 42.7539V43H260.781L255.982 33.6309ZM251.781 29.3594H256.035C257.359 29.3594 258.385 29.0254 259.111 28.3574C259.838 27.6777 260.201 26.7461 260.201 25.5625C260.201 24.3555 259.855 23.4062 259.164 22.7148C258.484 22.0234 257.436 21.6777 256.018 21.6777H251.781V29.3594ZM287.887 21.6777H280.047V43H274.773V21.6777H267.039V17.4062H287.887V21.6777Z"
                        fill="#457B9D" />
                    <path
                        d="M173.33 68.4062L181.697 89.2891L190.064 68.4062H194.441V94H191.066V84.0332L191.383 73.2754L182.98 94H180.396L172.012 73.3281L172.346 84.0332V94H168.971V68.4062H173.33ZM211.633 94C211.445 93.625 211.293 92.957 211.176 91.9961C209.664 93.5664 207.859 94.3516 205.762 94.3516C203.887 94.3516 202.346 93.8242 201.139 92.7695C199.943 91.7031 199.346 90.3555 199.346 88.7266C199.346 86.7461 200.096 85.2109 201.596 84.1211C203.107 83.0195 205.229 82.4688 207.959 82.4688H211.123V80.9746C211.123 79.8379 210.783 78.9355 210.104 78.2676C209.424 77.5879 208.422 77.248 207.098 77.248C205.938 77.248 204.965 77.541 204.18 78.127C203.395 78.7129 203.002 79.4219 203.002 80.2539H199.732C199.732 79.3047 200.066 78.3906 200.734 77.5117C201.414 76.6211 202.328 75.918 203.477 75.4023C204.637 74.8867 205.908 74.6289 207.291 74.6289C209.482 74.6289 211.199 75.1797 212.441 76.2812C213.684 77.3711 214.328 78.877 214.375 80.7988V89.5527C214.375 91.2988 214.598 92.6875 215.043 93.7188V94H211.633ZM206.236 91.5215C207.256 91.5215 208.223 91.2578 209.137 90.7305C210.051 90.2031 210.713 89.5176 211.123 88.6738V84.7715H208.574C204.59 84.7715 202.598 85.9375 202.598 88.2695C202.598 89.2891 202.938 90.0859 203.617 90.6602C204.297 91.2344 205.17 91.5215 206.236 91.5215ZM228.666 77.8984C228.174 77.8164 227.641 77.7754 227.066 77.7754C224.934 77.7754 223.486 78.6836 222.725 80.5V94H219.473V74.9805H222.637L222.689 77.1777C223.756 75.4785 225.268 74.6289 227.225 74.6289C227.857 74.6289 228.338 74.7109 228.666 74.875V77.8984ZM236.98 85.1934L234.941 87.3203V94H231.689V67H234.941V83.3301L236.682 81.2383L242.605 74.9805H246.561L239.16 82.9258L247.422 94H243.607L236.98 85.1934ZM257.459 94.3516C254.881 94.3516 252.783 93.5078 251.166 91.8203C249.549 90.1211 248.74 87.8535 248.74 85.0176V84.4199C248.74 82.5332 249.098 80.8516 249.812 79.375C250.539 77.8867 251.547 76.7266 252.836 75.8945C254.137 75.0508 255.543 74.6289 257.055 74.6289C259.527 74.6289 261.449 75.4434 262.82 77.0723C264.191 78.7012 264.877 81.0332 264.877 84.0684V85.4219H251.992C252.039 87.2969 252.584 88.8145 253.627 89.9746C254.682 91.123 256.018 91.6973 257.635 91.6973C258.783 91.6973 259.756 91.4629 260.553 90.9941C261.35 90.5254 262.047 89.9043 262.645 89.1309L264.631 90.6777C263.037 93.127 260.646 94.3516 257.459 94.3516ZM257.055 77.3008C255.742 77.3008 254.641 77.7812 253.75 78.7422C252.859 79.6914 252.309 81.0273 252.098 82.75H261.625V82.5039C261.531 80.8516 261.086 79.5742 260.289 78.6719C259.492 77.7578 258.414 77.3008 257.055 77.3008ZM273.068 70.375V74.9805H276.619V77.4941H273.068V89.2891C273.068 90.0508 273.227 90.625 273.543 91.0117C273.859 91.3867 274.398 91.5742 275.16 91.5742C275.535 91.5742 276.051 91.5039 276.707 91.3633V94C275.852 94.2344 275.02 94.3516 274.211 94.3516C272.758 94.3516 271.662 93.9121 270.924 93.0332C270.186 92.1543 269.816 90.9062 269.816 89.2891V77.4941H266.354V74.9805H269.816V70.375H273.068ZM283.967 94H280.715V74.9805H283.967V94ZM280.451 69.9355C280.451 69.4082 280.609 68.9629 280.926 68.5996C281.254 68.2363 281.734 68.0547 282.367 68.0547C283 68.0547 283.48 68.2363 283.809 68.5996C284.137 68.9629 284.301 69.4082 284.301 69.9355C284.301 70.4629 284.137 70.9023 283.809 71.2539C283.48 71.6055 283 71.7812 282.367 71.7812C281.734 71.7812 281.254 71.6055 280.926 71.2539C280.609 70.9023 280.451 70.4629 280.451 69.9355ZM292.264 74.9805L292.369 77.3711C293.822 75.543 295.721 74.6289 298.064 74.6289C302.084 74.6289 304.111 76.8965 304.146 81.4316V94H300.895V81.4141C300.883 80.043 300.566 79.0293 299.945 78.373C299.336 77.7168 298.381 77.3887 297.08 77.3887C296.025 77.3887 295.1 77.6699 294.303 78.2324C293.506 78.7949 292.885 79.5332 292.439 80.4473V94H289.188V74.9805H292.264ZM308.277 84.332C308.277 81.3672 308.963 79.0117 310.334 77.2656C311.705 75.5078 313.521 74.6289 315.783 74.6289C318.104 74.6289 319.914 75.4492 321.215 77.0898L321.373 74.9805H324.344V93.543C324.344 96.0039 323.611 97.9434 322.146 99.3613C320.693 100.779 318.736 101.488 316.275 101.488C314.904 101.488 313.562 101.195 312.25 100.609C310.938 100.023 309.936 99.2207 309.244 98.2012L310.932 96.25C312.326 97.9727 314.031 98.834 316.047 98.834C317.629 98.834 318.859 98.3887 319.738 97.498C320.629 96.6074 321.074 95.3535 321.074 93.7363V92.1016C319.773 93.6016 317.998 94.3516 315.748 94.3516C313.521 94.3516 311.717 93.4551 310.334 91.6621C308.963 89.8691 308.277 87.4258 308.277 84.332ZM311.547 84.7012C311.547 86.8457 311.986 88.5332 312.865 89.7637C313.744 90.9824 314.975 91.5918 316.557 91.5918C318.607 91.5918 320.113 90.6602 321.074 88.7969V80.1133C320.078 78.2969 318.584 77.3887 316.592 77.3887C315.01 77.3887 313.773 78.0039 312.883 79.2344C311.992 80.4648 311.547 82.2871 311.547 84.7012Z"
                        fill="#457B9D" />
                </svg>